<svg xmlns="http://www.w3.org/2000/svg" width="36.208" height="36.208" viewBox="0 0 36.208 36.208">
<g id="Group_218" data-name="Group 218" transform="translate(-165.516 -262.19)">
<g id="Group_216" data-name="Group 216" transform="translate(178.449 274.119)">
<path id="Path_115" data-name="Path 115" d="M257.768,355.02V344.78h-2.715v12.35h2.715Z" transform="translate(-255.053 -344.78)" fill="#ed8b00"></path>
<path id="Path_116" data-name="Path 116" d="M286.252,350.418a2.71,2.71,0,0,0,1.678-2.578c0-2.3-1.592-3.061-3.944-3.061h-1.908v2.109h1.355c.968,0,1.868.243,1.868,1.419,0,1.038-.709,1.47-1.661,1.47h-1.561v1.85h1.77c1.159,0,1.955.5,1.955,1.765,0,1.279-.935,1.626-2.007,1.626h-1.717v2.11h2.081c2.23,0,4.358-1.072,4.358-3.581A3.015,3.015,0,0,0,286.252,350.418Z" transform="translate(-278.174 -344.78)" fill="#ed8b00"></path>
</g>
<g id="Group_217" data-name="Group 217" transform="translate(165.516 262.19)">
<path id="Path_117" data-name="Path 117" d="M183.62,298.4a18.1,18.1,0,1,1,18.1-18.1A18.125,18.125,0,0,1,183.62,298.4Zm0-33.9a15.793,15.793,0,1,0,15.793,15.793A15.811,15.811,0,0,0,183.62,264.5Z" transform="translate(-165.516 -262.19)" fill="#ed8b00"></path>
</g>
</g>
</svg>