<svg xmlns="http://www.w3.org/2000/svg" width="105.439" height="31.16" viewBox="0 0 105.439 31.16"> <g id="Group_149" data-name="Group 149" transform="translate(-121.001 -16)"> <path id="Path_1" data-name="Path 1" d="M-169.984,57.358l-.951.217,0,.975V78.82l.962.216c13.247,3.014,32.109,4.74,51.757,4.74s38.515-1.726,51.759-4.74l.951-.216.011-.975V57.575l-.953-.217c-13.246-3.013-32.115-4.742-51.768-4.742s-38.52,1.729-51.764,4.742m51.764-2.3c19.021,0,37.257,1.63,50.279,4.478V76.857C-80.964,79.7-99.2,81.333-118.221,81.333S-155.475,79.7-168.5,76.857V59.536c13.021-2.847,31.255-4.478,50.275-4.478" transform="translate(291.94 -36.616)" fill="#ed8b00"></path> <path id="Path_2" data-name="Path 2" d="M-158.693,76.586v-10.6H-161.5V78.772h2.812Z" transform="translate(289.018 -40.756)" fill="#ed8b00"></path> <path id="Path_3" data-name="Path 3" d="M-151.325,71.821a2.805,2.805,0,0,0,1.737-2.669c0-2.382-1.648-3.169-4.084-3.169h-1.976v2.183h1.4c1,0,1.934.252,1.934,1.47,0,1.074-.734,1.522-1.72,1.522h-1.617v1.916h1.833c1.2,0,2.025.52,2.025,1.827,0,1.325-.968,1.684-2.078,1.684h-1.779v2.185h2.156c2.31,0,4.512-1.11,4.512-3.708a3.122,3.122,0,0,0-2.346-3.242" transform="translate(287.204 -40.756)" fill="#ed8b00"></path> <path id="Path_4" data-name="Path 4" d="M-138.225,76.669c-1.722-.234-2.017-1.475-2.017-2.734V65.983h-2.814v7.952c0,3.262,1.768,4.929,4.831,5.121Z" transform="translate(283.304 -40.756)" fill="#ed8b00"></path> <path id="Path_5" data-name="Path 5" d="M-132.24,65.983v7.952c0,1.689-.511,2.567-2.036,2.742v2.379c3.05-.2,4.849-1.877,4.849-5.121V65.983Z" transform="translate(280.585 -40.756)" fill="#ed8b00"></path> <path id="Path_6" data-name="Path 6" d="M-120.678,73.774V65.983h-2.812V78.771h2.812Z" transform="translate(277.244 -40.756)" fill="#ed8b00"></path> <path id="Path_7" data-name="Path 7" d="M-111.2,75.745c-.089-1.29-.483-2.633-1.863-2.992v-.035a3.151,3.151,0,0,0,2.025-3.208,3.514,3.514,0,0,0-3.744-3.527h-2.854v2.183h1.851c1.253,0,1.934.538,1.934,1.775,0,1.29-.681,1.826-1.934,1.826h-1.851v2.007h1.582c1.415,0,1.934.591,2.132,1.934a14.214,14.214,0,0,0,.447,3.063h2.813a6.993,6.993,0,0,1-.537-3.026" transform="translate(275.43 -40.756)" fill="#ed8b00"></path> <path id="Path_8" data-name="Path 8" d="M-75.213,65.983V70.89h-3.946v2.364h3.946v5.517H-72.4V65.983Z" transform="translate(263.514 -40.756)" fill="#ed8b00"></path> <path id="Path_9" data-name="Path 9" d="M-82.2,73.254V65.982h-2.812V78.771H-82.2Z" transform="translate(265.328 -40.756)" fill="#ed8b00"></path> <path id="Path_10" data-name="Path 10" d="M-64.178,77.422l.527-1.5h0l.743-2.1h-.012l1.666-4.693h.01l1.117-3.152h-2.524L-67.5,78.771h2.847Z" transform="translate(259.903 -40.756)" fill="#ed8b00"></path> <path id="Path_11" data-name="Path 11" d="M-56.963,67.863l-1.306,3.687.982,2.86h-2l-.743,2.1h3.473l.968,2.848h2.92Z" transform="translate(257.588 -41.338)" fill="#ed8b00"></path> <path id="Path_12" data-name="Path 12" d="M-44.862,69.8V65.983h-2.633V78.771h2.633Z" transform="translate(253.707 -40.756)" fill="#ed8b00"></path> <path id="Path_13" data-name="Path 13" d="M-31.353,65.983V78.772h2.633V65.983Z" transform="translate(248.707 -40.756)" fill="#ed8b00"></path> <path id="Path_14" data-name="Path 14" d="M-35.85,65.983h-.1l-2.83,8.794h-.034L-41.8,65.983H-41.9v7.236l1.94,5.553h2.167l1.94-5.61Z" transform="translate(251.973 -40.756)" fill="#ed8b00"></path> <path id="Path_15" data-name="Path 15" d="M-90.038,76.535V65.982h-2.633v6.31Z" transform="translate(267.699 -40.756)" fill="#ed8b00"></path> <path id="Path_16" data-name="Path 16" d="M-97.992,71.908l-3.687-5.925h-2.743L-98.3,75.84l1.815,2.932h2.751Z" transform="translate(271.338 -40.756)" fill="#ed8b00"></path> <path id="Path_17" data-name="Path 17" d="M-104.5,69.245V79.782h2.634V73.489Z" transform="translate(271.361 -41.766)" fill="#ed8b00"></path> </g> </svg>